<svg width="375" height="583" viewBox="0 0 375 583" fill="none" xmlns="http://www.w3.org/2000/svg">
<path fill-rule="evenodd" clip-rule="evenodd" d="M222.524 550.366C222.604 550.078 223.01 550.071 223.1 550.355L225.773 558.806C225.803 558.9 225.878 558.974 225.973 559.002L233.607 561.286C233.887 561.37 233.895 561.763 233.618 561.857L225.445 564.647C225.352 564.679 225.28 564.755 225.253 564.851L223.065 572.743C222.985 573.031 222.58 573.038 222.49 572.754L219.816 564.303C219.786 564.209 219.711 564.135 219.616 564.107L211.982 561.823C211.702 561.739 211.695 561.346 211.971 561.252L220.144 558.462C220.238 558.43 220.31 558.354 220.336 558.258L222.524 550.366Z" fill="white"/>
<path fill-rule="evenodd" clip-rule="evenodd" d="M364.524 7.36563C364.604 7.07794 365.01 7.07065 365.1 7.35529L367.773 15.8055C367.803 15.9002 367.878 15.974 367.973 16.0024L375.607 18.2859C375.887 18.3696 375.895 18.7629 375.618 18.8573L367.445 21.6469C367.352 21.6789 367.28 21.7551 367.253 21.8506L365.065 29.7434C364.985 30.0311 364.58 30.0384 364.49 29.7538L361.816 21.3035C361.786 21.2088 361.711 21.135 361.616 21.1066L353.982 18.8231C353.702 18.7394 353.695 18.3461 353.971 18.2518L362.144 15.4622C362.238 15.4302 362.31 15.3539 362.336 15.2585L364.524 7.36563Z" fill="white"/>
<path fill-rule="evenodd" clip-rule="evenodd" d="M-1.99377 68.8092C-1.91401 68.5215 -1.50871 68.5143 -1.41866 68.7989L0.0443454 73.4229C0.0743125 73.5176 0.149223 73.5914 0.244399 73.6198L4.4048 74.8643C4.68452 74.9479 4.69204 75.3413 4.41574 75.4356L-0.0732499 76.9678C-0.167033 76.9998 -0.238959 77.0761 -0.265436 77.1716L-1.4535 81.4565C-1.53327 81.7442 -1.93856 81.7515 -2.02862 81.4668L-3.49165 76.8428C-3.52161 76.7481 -3.59652 76.6744 -3.6917 76.6459L-7.85207 75.4014C-8.13178 75.3178 -8.13931 74.9244 -7.86301 74.8301L-3.37405 73.2979C-3.28027 73.2659 -3.20834 73.1897 -3.18187 73.0942L-1.99377 68.8092Z" fill="#27AE60"/>
<path fill-rule="evenodd" clip-rule="evenodd" d="M9.59548 204.095C9.67487 203.807 10.0813 203.8 10.1709 204.085L12.2215 210.614C12.2513 210.709 12.3261 210.783 12.4212 210.812L18.2746 212.575C18.5535 212.659 18.561 213.052 18.2856 213.146L12.0014 215.307C11.9077 215.339 11.836 215.416 11.8097 215.511L10.136 221.592C10.0566 221.881 9.65022 221.888 9.56057 221.603L7.50993 215.073C7.48016 214.979 7.4054 214.905 7.31027 214.876L1.45695 213.112C1.17804 213.028 1.17049 212.636 1.44596 212.541L7.73006 210.381C7.82373 210.348 7.89547 210.272 7.92175 210.176L9.59548 204.095Z" fill="#1B97DB"/>
<path fill-rule="evenodd" clip-rule="evenodd" d="M330.201 161.527C330.281 161.239 330.686 161.232 330.776 161.516L333.521 170.204C333.551 170.299 333.626 170.373 333.721 170.401L341.561 172.75C341.841 172.833 341.848 173.227 341.572 173.321L333.181 176.189C333.087 176.221 333.015 176.297 332.989 176.393L330.742 184.51C330.662 184.798 330.256 184.805 330.166 184.52L327.422 175.832C327.392 175.737 327.317 175.664 327.222 175.635L319.382 173.287C319.102 173.203 319.095 172.81 319.371 172.716L327.762 169.847C327.856 169.815 327.928 169.739 327.954 169.644L330.201 161.527Z" fill="#F49B0B"/>
</svg>
